<svg viewBox="0 0 53 25" xmlns="http://www.w3.org/2000/svg">
        <circle cx="3.5" cy="0" r="0.22" fill="#555555" />
<circle cx="9.5" cy="0" r="0.22" fill="#555555" />
<circle cx="10.5" cy="0" r="0.22" fill="#555555" />
<circle cx="12.5" cy="0" r="0.22" fill="#555555" />
<circle cx="13.5" cy="0" r="0.22" fill="#555555" />
<circle cx="14.5" cy="0" r="0.22" fill="#555555" />
<circle cx="15.5" cy="0" r="0.22" fill="#555555" />
<circle cx="19.5" cy="0" r="0.22" fill="#555555" />
<circle cx="20.5" cy="0" r="0.22" fill="#555555" />
<circle cx="21.5" cy="0" r="0.22" fill="#555555" />
<circle cx="22.5" cy="0" r="0.22" fill="#555555" />
<circle cx="30.5" cy="0" r="0.22" fill="#555555" />
<circle cx="34.5" cy="0" r="0.22" fill="#555555" />
<circle cx="36.5" cy="0" r="0.22" fill="#555555" />
<circle cx="37.5" cy="0" r="0.22" fill="#555555" />
<circle cx="38.5" cy="0" r="0.22" fill="#555555" />
<circle cx="39.5" cy="0" r="0.22" fill="#555555" />
<circle cx="40.5" cy="0" r="0.22" fill="#555555" />
<circle cx="41.5" cy="0" r="0.22" fill="#555555" />
<circle cx="42.5" cy="0" r="0.22" fill="#555555" />
<circle cx="43.5" cy="0" r="0.22" fill="#555555" />
<circle cx="44.5" cy="0" r="0.22" fill="#555555" />
<circle cx="45.5" cy="0" r="0.22" fill="#555555" />
<circle cx="46.5" cy="0" r="0.22" fill="#555555" />
<circle cx="47.5" cy="0" r="0.22" fill="#555555" />
<circle cx="48.5" cy="0" r="0.22" fill="#555555" />
<circle cx="3" cy="0.8660254037844386" r="0.22" fill="#555555" />
<circle cx="4" cy="0.8660254037844386" r="0.22" fill="#555555" />
<circle cx="5" cy="0.8660254037844386" r="0.22" fill="#555555" />
<circle cx="6" cy="0.8660254037844386" r="0.22" fill="#555555" />
<circle cx="7" cy="0.8660254037844386" r="0.22" fill="#555555" />
<circle cx="8" cy="0.8660254037844386" r="0.22" fill="#555555" />
<circle cx="9" cy="0.8660254037844386" r="0.22" fill="#555555" />
<circle cx="10" cy="0.8660254037844386" r="0.22" fill="#555555" />
<circle cx="11" cy="0.8660254037844386" r="0.22" fill="#555555" />
<circle cx="13" cy="0.8660254037844386" r="0.22" fill="#555555" />
<circle cx="14" cy="0.8660254037844386" r="0.22" fill="#555555" />
<circle cx="16" cy="0.8660254037844386" r="0.22" fill="#555555" />
<circle cx="19" cy="0.8660254037844386" r="0.22" fill="#555555" />
<circle cx="20" cy="0.8660254037844386" r="0.22" fill="#555555" />
<circle cx="21" cy="0.8660254037844386" r="0.22" fill="#555555" />
<circle cx="22" cy="0.8660254037844386" r="0.22" fill="#555555" />
<circle cx="30" cy="0.8660254037844386" r="0.22" fill="#555555" />
<circle cx="31" cy="0.8660254037844386" r="0.22" fill="#555555" />
<circle cx="36" cy="0.8660254037844386" r="0.22" fill="#555555" />
<circle cx="37" cy="0.8660254037844386" r="0.22" fill="#555555" />
<circle cx="38" cy="0.8660254037844386" r="0.22" fill="#555555" />
<circle cx="39" cy="0.8660254037844386" r="0.22" fill="#555555" />
<circle cx="40" cy="0.8660254037844386" r="0.22" fill="#555555" />
<circle cx="41" cy="0.8660254037844386" r="0.22" fill="#555555" />
<circle cx="42" cy="0.8660254037844386" r="0.22" fill="#555555" />
<circle cx="43" cy="0.8660254037844386" r="0.22" fill="#555555" />
<circle cx="44" cy="0.8660254037844386" r="0.22" fill="#555555" />
<circle cx="45" cy="0.8660254037844386" r="0.22" fill="#555555" />
<circle cx="46" cy="0.8660254037844386" r="0.22" fill="#555555" />
<circle cx="47" cy="0.8660254037844386" r="0.22" fill="#555555" />
<circle cx="48" cy="0.8660254037844386" r="0.22" fill="#555555" />
<circle cx="49" cy="0.8660254037844386" r="0.22" fill="#555555" />
<circle cx="50" cy="0.8660254037844386" r="0.22" fill="#555555" />
<circle cx="51" cy="0.8660254037844386" r="0.22" fill="#555555" />
<circle cx="52" cy="0.8660254037844386" r="0.22" fill="#555555" />
<circle cx="0.5" cy="1.7320508075688772" r="0.22" fill="#555555" />
<circle cx="2.5" cy="1.7320508075688772" r="0.22" fill="#555555" />
<circle cx="3.5" cy="1.7320508075688772" r="0.22" fill="#555555" />
<circle cx="4.5" cy="1.7320508075688772" r="0.22" fill="#555555" />
<circle cx="5.5" cy="1.7320508075688772" r="0.22" fill="#555555" />
<circle cx="6.5" cy="1.7320508075688772" r="0.22" fill="#555555" />
<circle cx="7.5" cy="1.7320508075688772" r="0.22" fill="#555555" />
<circle cx="8.5" cy="1.7320508075688772" r="0.22" fill="#555555" />
<circle cx="9.5" cy="1.7320508075688772" r="0.22" fill="#555555" />
<circle cx="10.5" cy="1.7320508075688772" r="0.22" fill="#555555" />
<circle cx="11.5" cy="1.7320508075688772" r="0.22" fill="#555555" />
<circle cx="12.5" cy="1.7320508075688772" r="0.22" fill="#555555" />
<circle cx="13.5" cy="1.7320508075688772" r="0.22" fill="#555555" />
<circle cx="16.5" cy="1.7320508075688772" r="0.22" fill="#555555" />
<circle cx="19.5" cy="1.7320508075688772" r="0.22" fill="#555555" />
<circle cx="20.5" cy="1.7320508075688772" r="0.22" fill="#555555" />
<circle cx="28.5" cy="1.7320508075688772" r="0.22" fill="#555555" />
<circle cx="29.5" cy="1.7320508075688772" r="0.22" fill="#555555" />
<circle cx="30.5" cy="1.7320508075688772" r="0.22" fill="#555555" />
<circle cx="31.5" cy="1.7320508075688772" r="0.22" fill="#555555" />
<circle cx="32.5" cy="1.7320508075688772" r="0.22" fill="#555555" />
<circle cx="33.5" cy="1.7320508075688772" r="0.22" fill="#555555" />
<circle cx="34.5" cy="1.7320508075688772" r="0.22" fill="#555555" />
<circle cx="35.5" cy="1.7320508075688772" r="0.22" fill="#555555" />
<circle cx="36.5" cy="1.7320508075688772" r="0.22" fill="#555555" />
<circle cx="37.5" cy="1.7320508075688772" r="0.22" fill="#555555" />
<circle cx="38.5" cy="1.7320508075688772" r="0.22" fill="#555555" />
<circle cx="39.5" cy="1.7320508075688772" r="0.22" fill="#555555" />
<circle cx="40.5" cy="1.7320508075688772" r="0.22" fill="#555555" />
<circle cx="41.5" cy="1.7320508075688772" r="0.22" fill="#555555" />
<circle cx="42.5" cy="1.7320508075688772" r="0.22" fill="#555555" />
<circle cx="43.5" cy="1.7320508075688772" r="0.22" fill="#555555" />
<circle cx="44.5" cy="1.7320508075688772" r="0.22" fill="#555555" />
<circle cx="45.5" cy="1.7320508075688772" r="0.22" fill="#555555" />
<circle cx="46.5" cy="1.7320508075688772" r="0.22" fill="#555555" />
<circle cx="47.5" cy="1.7320508075688772" r="0.22" fill="#555555" />
<circle cx="48.5" cy="1.7320508075688772" r="0.22" fill="#555555" />
<circle cx="49.5" cy="1.7320508075688772" r="0.22" fill="#555555" />
<circle cx="50.5" cy="1.7320508075688772" r="0.22" fill="#555555" />
<circle cx="51.5" cy="1.7320508075688772" r="0.22" fill="#555555" />
<circle cx="52.5" cy="1.7320508075688772" r="0.22" fill="#555555" />
<circle cx="3" cy="2.598076211353316" r="0.22" fill="#555555" />
<circle cx="4" cy="2.598076211353316" r="0.22" fill="#555555" />
<circle cx="5" cy="2.598076211353316" r="0.22" fill="#555555" />
<circle cx="6" cy="2.598076211353316" r="0.22" fill="#555555" />
<circle cx="7" cy="2.598076211353316" r="0.22" fill="#555555" />
<circle cx="8" cy="2.598076211353316" r="0.22" fill="#555555" />
<circle cx="9" cy="2.598076211353316" r="0.22" fill="#555555" />
<circle cx="10" cy="2.598076211353316" r="0.22" fill="#555555" />
<circle cx="11" cy="2.598076211353316" r="0.22" fill="#555555" />
<circle cx="12" cy="2.598076211353316" r="0.22" fill="#555555" />
<circle cx="13" cy="2.598076211353316" r="0.22" fill="#555555" />
<circle cx="14" cy="2.598076211353316" r="0.22" fill="#555555" />
<circle cx="15" cy="2.598076211353316" r="0.22" fill="#555555" />
<circle cx="16" cy="2.598076211353316" r="0.22" fill="#555555" />
<circle cx="19" cy="2.598076211353316" r="0.22" fill="#555555" />
<circle cx="20" cy="2.598076211353316" r="0.22" fill="#555555" />
<circle cx="24" cy="2.598076211353316" r="0.22" fill="#555555" />
<circle cx="29" cy="2.598076211353316" r="0.22" fill="#555555" />
<circle cx="30" cy="2.598076211353316" r="0.22" fill="#555555" />
<circle cx="31" cy="2.598076211353316" r="0.22" fill="#555555" />
<circle cx="32" cy="2.598076211353316" r="0.22" fill="#555555" />
<circle cx="33" cy="2.598076211353316" r="0.22" fill="#555555" />
<circle cx="34" cy="2.598076211353316" r="0.22" fill="#555555" />
<circle cx="35" cy="2.598076211353316" r="0.22" fill="#555555" />
<circle cx="36" cy="2.598076211353316" r="0.22" fill="#555555" />
<circle cx="37" cy="2.598076211353316" r="0.22" fill="#555555" />
<circle cx="38" cy="2.598076211353316" r="0.22" fill="#555555" />
<circle cx="39" cy="2.598076211353316" r="0.22" fill="#555555" />
<circle cx="40" cy="2.598076211353316" r="0.22" fill="#555555" />
<circle cx="41" cy="2.598076211353316" r="0.22" fill="#555555" />
<circle cx="42" cy="2.598076211353316" r="0.22" fill="#555555" />
<circle cx="43" cy="2.598076211353316" r="0.22" fill="#555555" />
<circle cx="44" cy="2.598076211353316" r="0.22" fill="#555555" />
<circle cx="45" cy="2.598076211353316" r="0.22" fill="#555555" />
<circle cx="46" cy="2.598076211353316" r="0.22" fill="#555555" />
<circle cx="47" cy="2.598076211353316" r="0.22" fill="#555555" />
<circle cx="48" cy="2.598076211353316" r="0.22" fill="#555555" />
<circle cx="49" cy="2.598076211353316" r="0.22" fill="#555555" />
<circle cx="50" cy="2.598076211353316" r="0.22" fill="#555555" />
<circle cx="51" cy="2.598076211353316" r="0.22" fill="#555555" />
<circle cx="52" cy="2.598076211353316" r="0.22" fill="#555555" />
<circle cx="2.5" cy="3.4641016151377544" r="0.22" fill="#555555" />
<circle cx="3.5" cy="3.4641016151377544" r="0.22" fill="#555555" />
<circle cx="4.5" cy="3.4641016151377544" r="0.22" fill="#555555" />
<circle cx="5.5" cy="3.4641016151377544" r="0.22" fill="#555555" />
<circle cx="6.5" cy="3.4641016151377544" r="0.22" fill="#555555" />
<circle cx="7.5" cy="3.4641016151377544" r="0.22" fill="#555555" />
<circle cx="8.5" cy="3.4641016151377544" r="0.22" fill="#555555" />
<circle cx="9.5" cy="3.4641016151377544" r="0.22" fill="#555555" />
<circle cx="10.5" cy="3.4641016151377544" r="0.22" fill="#555555" />
<circle cx="11.5" cy="3.4641016151377544" r="0.22" fill="#555555" />
<circle cx="12.5" cy="3.4641016151377544" r="0.22" fill="#555555" />
<circle cx="15.5" cy="3.4641016151377544" r="0.22" fill="#555555" />
<circle cx="19.5" cy="3.4641016151377544" r="0.22" fill="#555555" />
<circle cx="27.5" cy="3.4641016151377544" r="0.22" fill="#555555" />
<circle cx="28.5" cy="3.4641016151377544" r="0.22" fill="#555555" />
<circle cx="30.5" cy="3.4641016151377544" r="0.22" fill="#555555" />
<circle cx="31.5" cy="3.4641016151377544" r="0.22" fill="#555555" />
<circle cx="32.5" cy="3.4641016151377544" r="0.22" fill="#555555" />
<circle cx="33.5" cy="3.4641016151377544" r="0.22" fill="#555555" />
<circle cx="34.5" cy="3.4641016151377544" r="0.22" fill="#555555" />
<circle cx="35.5" cy="3.4641016151377544" r="0.22" fill="#555555" />
<circle cx="36.5" cy="3.4641016151377544" r="0.22" fill="#555555" />
<circle cx="37.5" cy="3.4641016151377544" r="0.22" fill="#555555" />
<circle cx="38.5" cy="3.4641016151377544" r="0.22" fill="#555555" />
<circle cx="39.5" cy="3.4641016151377544" r="0.22" fill="#555555" />
<circle cx="40.5" cy="3.4641016151377544" r="0.22" fill="#555555" />
<circle cx="41.5" cy="3.4641016151377544" r="0.22" fill="#555555" />
<circle cx="42.5" cy="3.4641016151377544" r="0.22" fill="#555555" />
<circle cx="43.5" cy="3.4641016151377544" r="0.22" fill="#555555" />
<circle cx="44.5" cy="3.4641016151377544" r="0.22" fill="#555555" />
<circle cx="45.5" cy="3.4641016151377544" r="0.22" fill="#555555" />
<circle cx="46.5" cy="3.4641016151377544" r="0.22" fill="#555555" />
<circle cx="47.5" cy="3.4641016151377544" r="0.22" fill="#555555" />
<circle cx="48.5" cy="3.4641016151377544" r="0.22" fill="#555555" />
<circle cx="49.5" cy="3.4641016151377544" r="0.22" fill="#555555" />
<circle cx="50.5" cy="3.4641016151377544" r="0.22" fill="#555555" />
<circle cx="51.5" cy="3.4641016151377544" r="0.22" fill="#555555" />
<circle cx="3" cy="4.330127018922193" r="0.22" fill="#555555" />
<circle cx="7" cy="4.330127018922193" r="0.22" fill="#555555" />
<circle cx="8" cy="4.330127018922193" r="0.22" fill="#555555" />
<circle cx="9" cy="4.330127018922193" r="0.22" fill="#555555" />
<circle cx="10" cy="4.330127018922193" r="0.22" fill="#555555" />
<circle cx="11" cy="4.330127018922193" r="0.22" fill="#555555" />
<circle cx="12" cy="4.330127018922193" r="0.22" fill="#555555" />
<circle cx="15" cy="4.330127018922193" r="0.22" fill="#555555" />
<circle cx="16" cy="4.330127018922193" r="0.22" fill="#555555" />
<circle cx="17" cy="4.330127018922193" r="0.22" fill="#555555" />
<circle cx="30" cy="4.330127018922193" r="0.22" fill="#555555" />
<circle cx="31" cy="4.330127018922193" r="0.22" fill="#555555" />
<circle cx="32" cy="4.330127018922193" r="0.22" fill="#555555" />
<circle cx="33" cy="4.330127018922193" r="0.22" fill="#555555" />
<circle cx="34" cy="4.330127018922193" r="0.22" fill="#555555" />
<circle cx="35" cy="4.330127018922193" r="0.22" fill="#555555" />
<circle cx="36" cy="4.330127018922193" r="0.22" fill="#555555" />
<circle cx="37" cy="4.330127018922193" r="0.22" fill="#555555" />
<circle cx="38" cy="4.330127018922193" r="0.22" fill="#555555" />
<circle cx="39" cy="4.330127018922193" r="0.22" fill="#555555" />
<circle cx="40" cy="4.330127018922193" r="0.22" fill="#555555" />
<circle cx="41" cy="4.330127018922193" r="0.22" fill="#555555" />
<circle cx="42" cy="4.330127018922193" r="0.22" fill="#555555" />
<circle cx="43" cy="4.330127018922193" r="0.22" fill="#555555" />
<circle cx="44" cy="4.330127018922193" r="0.22" fill="#555555" />
<circle cx="45" cy="4.330127018922193" r="0.22" fill="#555555" />
<circle cx="46" cy="4.330127018922193" r="0.22" fill="#555555" />
<circle cx="47" cy="4.330127018922193" r="0.22" fill="#555555" />
<circle cx="2.5" cy="5.196152422706632" r="0.22" fill="#555555" />
<circle cx="7.5" cy="5.196152422706632" r="0.22" fill="#555555" />
<circle cx="8.5" cy="5.196152422706632" r="0.22" fill="#555555" />
<circle cx="9.5" cy="5.196152422706632" r="0.22" fill="#555555" />
<circle cx="10.5" cy="5.196152422706632" r="0.22" fill="#555555" />
<circle cx="11.5" cy="5.196152422706632" r="0.22" fill="#555555" />
<circle cx="12.5" cy="5.196152422706632" r="0.22" fill="#555555" />
<circle cx="13.5" cy="5.196152422706632" r="0.22" fill="#555555" />
<circle cx="15.5" cy="5.196152422706632" r="0.22" fill="#555555" />
<circle cx="16.5" cy="5.196152422706632" r="0.22" fill="#555555" />
<circle cx="17.5" cy="5.196152422706632" r="0.22" fill="#555555" />
<circle cx="28.5" cy="5.196152422706632" r="0.22" fill="#555555" />
<circle cx="30.5" cy="5.196152422706632" r="0.22" fill="#555555" />
<circle cx="31.5" cy="5.196152422706632" r="0.22" fill="#555555" />
<circle cx="32.5" cy="5.196152422706632" r="0.22" fill="#555555" />
<circle cx="33.5" cy="5.196152422706632" r="0.22" fill="#555555" />
<circle cx="34.5" cy="5.196152422706632" r="0.22" fill="#555555" />
<circle cx="35.5" cy="5.196152422706632" r="0.22" fill="#555555" />
<circle cx="36.5" cy="5.196152422706632" r="0.22" fill="#555555" />
<circle cx="37.5" cy="5.196152422706632" r="0.22" fill="#555555" />
<circle cx="38.5" cy="5.196152422706632" r="0.22" fill="#555555" />
<circle cx="39.5" cy="5.196152422706632" r="0.22" fill="#555555" />
<circle cx="40.5" cy="5.196152422706632" r="0.22" fill="#555555" />
<circle cx="41.5" cy="5.196152422706632" r="0.22" fill="#555555" />
<circle cx="42.5" cy="5.196152422706632" r="0.22" fill="#555555" />
<circle cx="43.5" cy="5.196152422706632" r="0.22" fill="#555555" />
<circle cx="44.5" cy="5.196152422706632" r="0.22" fill="#555555" />
<circle cx="45.5" cy="5.196152422706632" r="0.22" fill="#555555" />
<circle cx="46.5" cy="5.196152422706632" r="0.22" fill="#555555" />
<circle cx="8" cy="6.06217782649107" r="0.22" fill="#555555" />
<circle cx="9" cy="6.06217782649107" r="0.22" fill="#555555" />
<circle cx="10" cy="6.06217782649107" r="0.22" fill="#555555" />
<circle cx="11" cy="6.06217782649107" r="0.22" fill="#555555" />
<circle cx="12" cy="6.06217782649107" r="0.22" fill="#555555" />
<circle cx="13" cy="6.06217782649107" r="0.22" fill="#555555" />
<circle cx="14" cy="6.06217782649107" r="0.22" fill="#555555" />
<circle cx="15" cy="6.06217782649107" r="0.22" fill="#555555" />
<circle cx="16" cy="6.06217782649107" r="0.22" fill="#555555" />
<circle cx="17" cy="6.06217782649107" r="0.22" fill="#555555" />
<circle cx="18" cy="6.06217782649107" r="0.22" fill="#555555" />
<circle cx="26" cy="6.06217782649107" r="0.22" fill="#555555" />
<circle cx="28" cy="6.06217782649107" r="0.22" fill="#555555" />
<circle cx="29" cy="6.06217782649107" r="0.22" fill="#555555" />
<circle cx="30" cy="6.06217782649107" r="0.22" fill="#555555" />
<circle cx="31" cy="6.06217782649107" r="0.22" fill="#555555" />
<circle cx="32" cy="6.06217782649107" r="0.22" fill="#555555" />
<circle cx="33" cy="6.06217782649107" r="0.22" fill="#555555" />
<circle cx="34" cy="6.06217782649107" r="0.22" fill="#555555" />
<circle cx="35" cy="6.06217782649107" r="0.22" fill="#555555" />
<circle cx="36" cy="6.06217782649107" r="0.22" fill="#555555" />
<circle cx="37" cy="6.06217782649107" r="0.22" fill="#555555" />
<circle cx="38" cy="6.06217782649107" r="0.22" fill="#555555" />
<circle cx="39" cy="6.06217782649107" r="0.22" fill="#555555" />
<circle cx="40" cy="6.06217782649107" r="0.22" fill="#555555" />
<circle cx="41" cy="6.06217782649107" r="0.22" fill="#555555" />
<circle cx="42" cy="6.06217782649107" r="0.22" fill="#555555" />
<circle cx="43" cy="6.06217782649107" r="0.22" fill="#555555" />
<circle cx="44" cy="6.06217782649107" r="0.22" fill="#555555" />
<circle cx="45" cy="6.06217782649107" r="0.22" fill="#555555" />
<circle cx="46" cy="6.06217782649107" r="0.22" fill="#555555" />
<circle cx="47" cy="6.06217782649107" r="0.22" fill="#555555" />
<circle cx="8.5" cy="6.928203230275509" r="0.22" fill="#555555" />
<circle cx="9.5" cy="6.928203230275509" r="0.22" fill="#555555" />
<circle cx="10.5" cy="6.928203230275509" r="0.22" fill="#555555" />
<circle cx="11.5" cy="6.928203230275509" r="0.22" fill="#555555" />
<circle cx="12.5" cy="6.928203230275509" r="0.22" fill="#555555" />
<circle cx="13.5" cy="6.928203230275509" r="0.22" fill="#555555" />
<circle cx="14.5" cy="6.928203230275509" r="0.22" fill="#555555" />
<circle cx="15.5" cy="6.928203230275509" r="0.22" fill="#555555" />
<circle cx="16.5" cy="6.928203230275509" r="0.22" fill="#555555" />
<circle cx="18.5" cy="6.928203230275509" r="0.22" fill="#555555" />
<circle cx="26.5" cy="6.928203230275509" r="0.22" fill="#555555" />
<circle cx="27.5" cy="6.928203230275509" r="0.22" fill="#555555" />
<circle cx="28.5" cy="6.928203230275509" r="0.22" fill="#555555" />
<circle cx="29.5" cy="6.928203230275509" r="0.22" fill="#555555" />
<circle cx="30.5" cy="6.928203230275509" r="0.22" fill="#555555" />
<circle cx="31.5" cy="6.928203230275509" r="0.22" fill="#555555" />
<circle cx="32.5" cy="6.928203230275509" r="0.22" fill="#555555" />
<circle cx="33.5" cy="6.928203230275509" r="0.22" fill="#555555" />
<circle cx="34.5" cy="6.928203230275509" r="0.22" fill="#555555" />
<circle cx="35.5" cy="6.928203230275509" r="0.22" fill="#555555" />
<circle cx="36.5" cy="6.928203230275509" r="0.22" fill="#555555" />
<circle cx="37.5" cy="6.928203230275509" r="0.22" fill="#555555" />
<circle cx="38.5" cy="6.928203230275509" r="0.22" fill="#555555" />
<circle cx="39.5" cy="6.928203230275509" r="0.22" fill="#555555" />
<circle cx="40.5" cy="6.928203230275509" r="0.22" fill="#555555" />
<circle cx="41.5" cy="6.928203230275509" r="0.22" fill="#555555" />
<circle cx="42.5" cy="6.928203230275509" r="0.22" fill="#555555" />
<circle cx="43.5" cy="6.928203230275509" r="0.22" fill="#555555" />
<circle cx="44.5" cy="6.928203230275509" r="0.22" fill="#555555" />
<circle cx="45.5" cy="6.928203230275509" r="0.22" fill="#555555" />
<circle cx="46.5" cy="6.928203230275509" r="0.22" fill="#555555" />
<circle cx="9" cy="7.794228634059947" r="0.22" fill="#555555" />
<circle cx="10" cy="7.794228634059947" r="0.22" fill="#555555" />
<circle cx="11" cy="7.794228634059947" r="0.22" fill="#555555" />
<circle cx="12" cy="7.794228634059947" r="0.22" fill="#555555" />
<circle cx="13" cy="7.794228634059947" r="0.22" fill="#555555" />
<circle cx="14" cy="7.794228634059947" r="0.22" fill="#555555" />
<circle cx="15" cy="7.794228634059947" r="0.22" fill="#555555" />
<circle cx="16" cy="7.794228634059947" r="0.22" fill="#555555" />
<circle cx="27" cy="7.794228634059947" r="0.22" fill="#555555" />
<circle cx="28" cy="7.794228634059947" r="0.22" fill="#555555" />
<circle cx="29" cy="7.794228634059947" r="0.22" fill="#555555" />
<circle cx="30" cy="7.794228634059947" r="0.22" fill="#555555" />
<circle cx="33" cy="7.794228634059947" r="0.22" fill="#555555" />
<circle cx="34" cy="7.794228634059947" r="0.22" fill="#555555" />
<circle cx="35" cy="7.794228634059947" r="0.22" fill="#555555" />
<circle cx="36" cy="7.794228634059947" r="0.22" fill="#555555" />
<circle cx="37" cy="7.794228634059947" r="0.22" fill="#555555" />
<circle cx="38" cy="7.794228634059947" r="0.22" fill="#555555" />
<circle cx="39" cy="7.794228634059947" r="0.22" fill="#555555" />
<circle cx="40" cy="7.794228634059947" r="0.22" fill="#555555" />
<circle cx="41" cy="7.794228634059947" r="0.22" fill="#555555" />
<circle cx="42" cy="7.794228634059947" r="0.22" fill="#555555" />
<circle cx="43" cy="7.794228634059947" r="0.22" fill="#555555" />
<circle cx="44" cy="7.794228634059947" r="0.22" fill="#555555" />
<circle cx="45" cy="7.794228634059947" r="0.22" fill="#555555" />
<circle cx="46" cy="7.794228634059947" r="0.22" fill="#555555" />
<circle cx="48" cy="7.794228634059947" r="0.22" fill="#555555" />
<circle cx="8.5" cy="8.660254037844386" r="0.22" fill="#555555" />
<circle cx="9.5" cy="8.660254037844386" r="0.22" fill="#555555" />
<circle cx="10.5" cy="8.660254037844386" r="0.22" fill="#555555" />
<circle cx="11.5" cy="8.660254037844386" r="0.22" fill="#555555" />
<circle cx="12.5" cy="8.660254037844386" r="0.22" fill="#555555" />
<circle cx="13.5" cy="8.660254037844386" r="0.22" fill="#555555" />
<circle cx="14.5" cy="8.660254037844386" r="0.22" fill="#555555" />
<circle cx="15.5" cy="8.660254037844386" r="0.22" fill="#555555" />
<circle cx="25.5" cy="8.660254037844386" r="0.22" fill="#555555" />
<circle cx="29.5" cy="8.660254037844386" r="0.22" fill="#555555" />
<circle cx="30.5" cy="8.660254037844386" r="0.22" fill="#555555" />
<circle cx="31.5" cy="8.660254037844386" r="0.22" fill="#555555" />
<circle cx="32.5" cy="8.660254037844386" r="0.22" fill="#555555" />
<circle cx="33.5" cy="8.660254037844386" r="0.22" fill="#555555" />
<circle cx="34.5" cy="8.660254037844386" r="0.22" fill="#555555" />
<circle cx="35.5" cy="8.660254037844386" r="0.22" fill="#555555" />
<circle cx="36.5" cy="8.660254037844386" r="0.22" fill="#555555" />
<circle cx="37.5" cy="8.660254037844386" r="0.22" fill="#555555" />
<circle cx="38.5" cy="8.660254037844386" r="0.22" fill="#555555" />
<circle cx="39.5" cy="8.660254037844386" r="0.22" fill="#555555" />
<circle cx="40.5" cy="8.660254037844386" r="0.22" fill="#555555" />
<circle cx="41.5" cy="8.660254037844386" r="0.22" fill="#555555" />
<circle cx="42.5" cy="8.660254037844386" r="0.22" fill="#555555" />
<circle cx="43.5" cy="8.660254037844386" r="0.22" fill="#555555" />
<circle cx="44.5" cy="8.660254037844386" r="0.22" fill="#555555" />
<circle cx="47.5" cy="8.660254037844386" r="0.22" fill="#555555" />
<circle cx="9" cy="9.526279441628825" r="0.22" fill="#555555" />
<circle cx="10" cy="9.526279441628825" r="0.22" fill="#555555" />
<circle cx="11" cy="9.526279441628825" r="0.22" fill="#555555" />
<circle cx="12" cy="9.526279441628825" r="0.22" fill="#555555" />
<circle cx="13" cy="9.526279441628825" r="0.22" fill="#555555" />
<circle cx="14" cy="9.526279441628825" r="0.22" fill="#555555" />
<circle cx="15" cy="9.526279441628825" r="0.22" fill="#555555" />
<circle cx="26" cy="9.526279441628825" r="0.22" fill="#555555" />
<circle cx="27" cy="9.526279441628825" r="0.22" fill="#555555" />
<circle cx="28" cy="9.526279441628825" r="0.22" fill="#555555" />
<circle cx="32" cy="9.526279441628825" r="0.22" fill="#555555" />
<circle cx="33" cy="9.526279441628825" r="0.22" fill="#555555" />
<circle cx="34" cy="9.526279441628825" r="0.22" fill="#555555" />
<circle cx="35" cy="9.526279441628825" r="0.22" fill="#555555" />
<circle cx="36" cy="9.526279441628825" r="0.22" fill="#555555" />
<circle cx="37" cy="9.526279441628825" r="0.22" fill="#555555" />
<circle cx="38" cy="9.526279441628825" r="0.22" fill="#555555" />
<circle cx="39" cy="9.526279441628825" r="0.22" fill="#555555" />
<circle cx="40" cy="9.526279441628825" r="0.22" fill="#555555" />
<circle cx="41" cy="9.526279441628825" r="0.22" fill="#555555" />
<circle cx="42" cy="9.526279441628825" r="0.22" fill="#555555" />
<circle cx="43" cy="9.526279441628825" r="0.22" fill="#555555" />
<circle cx="44" cy="9.526279441628825" r="0.22" fill="#555555" />
<circle cx="47" cy="9.526279441628825" r="0.22" fill="#555555" />
<circle cx="9.5" cy="10.392304845413264" r="0.22" fill="#555555" />
<circle cx="10.5" cy="10.392304845413264" r="0.22" fill="#555555" />
<circle cx="11.5" cy="10.392304845413264" r="0.22" fill="#555555" />
<circle cx="12.5" cy="10.392304845413264" r="0.22" fill="#555555" />
<circle cx="25.5" cy="10.392304845413264" r="0.22" fill="#555555" />
<circle cx="26.5" cy="10.392304845413264" r="0.22" fill="#555555" />
<circle cx="27.5" cy="10.392304845413264" r="0.22" fill="#555555" />
<circle cx="28.5" cy="10.392304845413264" r="0.22" fill="#555555" />
<circle cx="29.5" cy="10.392304845413264" r="0.22" fill="#555555" />
<circle cx="30.5" cy="10.392304845413264" r="0.22" fill="#555555" />
<circle cx="31.5" cy="10.392304845413264" r="0.22" fill="#555555" />
<circle cx="32.5" cy="10.392304845413264" r="0.22" fill="#555555" />
<circle cx="33.5" cy="10.392304845413264" r="0.22" fill="#555555" />
<circle cx="34.5" cy="10.392304845413264" r="0.22" fill="#555555" />
<circle cx="35.5" cy="10.392304845413264" r="0.22" fill="#555555" />
<circle cx="36.5" cy="10.392304845413264" r="0.22" fill="#555555" />
<circle cx="37.5" cy="10.392304845413264" r="0.22" fill="#555555" />
<circle cx="38.5" cy="10.392304845413264" r="0.22" fill="#555555" />
<circle cx="39.5" cy="10.392304845413264" r="0.22" fill="#555555" />
<circle cx="40.5" cy="10.392304845413264" r="0.22" fill="#555555" />
<circle cx="41.5" cy="10.392304845413264" r="0.22" fill="#555555" />
<circle cx="42.5" cy="10.392304845413264" r="0.22" fill="#555555" />
<circle cx="43.5" cy="10.392304845413264" r="0.22" fill="#555555" />
<circle cx="10" cy="11.258330249197702" r="0.22" fill="#555555" />
<circle cx="11" cy="11.258330249197702" r="0.22" fill="#555555" />
<circle cx="12" cy="11.258330249197702" r="0.22" fill="#555555" />
<circle cx="25" cy="11.258330249197702" r="0.22" fill="#555555" />
<circle cx="26" cy="11.258330249197702" r="0.22" fill="#555555" />
<circle cx="27" cy="11.258330249197702" r="0.22" fill="#555555" />
<circle cx="28" cy="11.258330249197702" r="0.22" fill="#555555" />
<circle cx="29" cy="11.258330249197702" r="0.22" fill="#555555" />
<circle cx="30" cy="11.258330249197702" r="0.22" fill="#555555" />
<circle cx="31" cy="11.258330249197702" r="0.22" fill="#555555" />
<circle cx="33" cy="11.258330249197702" r="0.22" fill="#555555" />
<circle cx="34" cy="11.258330249197702" r="0.22" fill="#555555" />
<circle cx="37" cy="11.258330249197702" r="0.22" fill="#555555" />
<circle cx="38" cy="11.258330249197702" r="0.22" fill="#555555" />
<circle cx="39" cy="11.258330249197702" r="0.22" fill="#555555" />
<circle cx="40" cy="11.258330249197702" r="0.22" fill="#555555" />
<circle cx="41" cy="11.258330249197702" r="0.22" fill="#555555" />
<circle cx="42" cy="11.258330249197702" r="0.22" fill="#555555" />
<circle cx="43" cy="11.258330249197702" r="0.22" fill="#555555" />
<circle cx="44" cy="11.258330249197702" r="0.22" fill="#555555" />
<circle cx="3.5" cy="12.12435565298214" r="0.22" fill="#555555" />
<circle cx="11.5" cy="12.12435565298214" r="0.22" fill="#555555" />
<circle cx="13.5" cy="12.12435565298214" r="0.22" fill="#555555" />
<circle cx="24.5" cy="12.12435565298214" r="0.22" fill="#555555" />
<circle cx="25.5" cy="12.12435565298214" r="0.22" fill="#555555" />
<circle cx="26.5" cy="12.12435565298214" r="0.22" fill="#555555" />
<circle cx="27.5" cy="12.12435565298214" r="0.22" fill="#555555" />
<circle cx="28.5" cy="12.12435565298214" r="0.22" fill="#555555" />
<circle cx="29.5" cy="12.12435565298214" r="0.22" fill="#555555" />
<circle cx="30.5" cy="12.12435565298214" r="0.22" fill="#555555" />
<circle cx="31.5" cy="12.12435565298214" r="0.22" fill="#555555" />
<circle cx="33.5" cy="12.12435565298214" r="0.22" fill="#555555" />
<circle cx="34.5" cy="12.12435565298214" r="0.22" fill="#555555" />
<circle cx="37.5" cy="12.12435565298214" r="0.22" fill="#555555" />
<circle cx="38.5" cy="12.12435565298214" r="0.22" fill="#555555" />
<circle cx="40.5" cy="12.12435565298214" r="0.22" fill="#555555" />
<circle cx="41.5" cy="12.12435565298214" r="0.22" fill="#555555" />
<circle cx="14" cy="12.990381056766578" r="0.22" fill="#555555" />
<circle cx="25" cy="12.990381056766578" r="0.22" fill="#555555" />
<circle cx="26" cy="12.990381056766578" r="0.22" fill="#555555" />
<circle cx="27" cy="12.990381056766578" r="0.22" fill="#555555" />
<circle cx="28" cy="12.990381056766578" r="0.22" fill="#555555" />
<circle cx="29" cy="12.990381056766578" r="0.22" fill="#555555" />
<circle cx="30" cy="12.990381056766578" r="0.22" fill="#555555" />
<circle cx="31" cy="12.990381056766578" r="0.22" fill="#555555" />
<circle cx="32" cy="12.990381056766578" r="0.22" fill="#555555" />
<circle cx="33" cy="12.990381056766578" r="0.22" fill="#555555" />
<circle cx="38" cy="12.990381056766578" r="0.22" fill="#555555" />
<circle cx="42" cy="12.990381056766578" r="0.22" fill="#555555" />
<circle cx="14.5" cy="13.856406460551018" r="0.22" fill="#555555" />
<circle cx="15.5" cy="13.856406460551018" r="0.22" fill="#555555" />
<circle cx="16.5" cy="13.856406460551018" r="0.22" fill="#555555" />
<circle cx="17.5" cy="13.856406460551018" r="0.22" fill="#555555" />
<circle cx="25.5" cy="13.856406460551018" r="0.22" fill="#555555" />
<circle cx="26.5" cy="13.856406460551018" r="0.22" fill="#555555" />
<circle cx="27.5" cy="13.856406460551018" r="0.22" fill="#555555" />
<circle cx="28.5" cy="13.856406460551018" r="0.22" fill="#555555" />
<circle cx="29.5" cy="13.856406460551018" r="0.22" fill="#555555" />
<circle cx="30.5" cy="13.856406460551018" r="0.22" fill="#555555" />
<circle cx="31.5" cy="13.856406460551018" r="0.22" fill="#555555" />
<circle cx="32.5" cy="13.856406460551018" r="0.22" fill="#555555" />
<circle cx="33.5" cy="13.856406460551018" r="0.22" fill="#555555" />
<circle cx="38.5" cy="13.856406460551018" r="0.22" fill="#555555" />
<circle cx="15" cy="14.722431864335457" r="0.22" fill="#555555" />
<circle cx="16" cy="14.722431864335457" r="0.22" fill="#555555" />
<circle cx="17" cy="14.722431864335457" r="0.22" fill="#555555" />
<circle cx="18" cy="14.722431864335457" r="0.22" fill="#555555" />
<circle cx="19" cy="14.722431864335457" r="0.22" fill="#555555" />
<circle cx="28" cy="14.722431864335457" r="0.22" fill="#555555" />
<circle cx="29" cy="14.722431864335457" r="0.22" fill="#555555" />
<circle cx="30" cy="14.722431864335457" r="0.22" fill="#555555" />
<circle cx="31" cy="14.722431864335457" r="0.22" fill="#555555" />
<circle cx="32" cy="14.722431864335457" r="0.22" fill="#555555" />
<circle cx="33" cy="14.722431864335457" r="0.22" fill="#555555" />
<circle cx="43" cy="14.722431864335457" r="0.22" fill="#555555" />
<circle cx="15.5" cy="15.588457268119894" r="0.22" fill="#555555" />
<circle cx="16.5" cy="15.588457268119894" r="0.22" fill="#555555" />
<circle cx="17.5" cy="15.588457268119894" r="0.22" fill="#555555" />
<circle cx="18.5" cy="15.588457268119894" r="0.22" fill="#555555" />
<circle cx="19.5" cy="15.588457268119894" r="0.22" fill="#555555" />
<circle cx="20.5" cy="15.588457268119894" r="0.22" fill="#555555" />
<circle cx="28.5" cy="15.588457268119894" r="0.22" fill="#555555" />
<circle cx="29.5" cy="15.588457268119894" r="0.22" fill="#555555" />
<circle cx="30.5" cy="15.588457268119894" r="0.22" fill="#555555" />
<circle cx="31.5" cy="15.588457268119894" r="0.22" fill="#555555" />
<circle cx="43.5" cy="15.588457268119894" r="0.22" fill="#555555" />
<circle cx="44.5" cy="15.588457268119894" r="0.22" fill="#555555" />
<circle cx="46.5" cy="15.588457268119894" r="0.22" fill="#555555" />
<circle cx="47.5" cy="15.588457268119894" r="0.22" fill="#555555" />
<circle cx="15" cy="16.454482671904334" r="0.22" fill="#555555" />
<circle cx="16" cy="16.454482671904334" r="0.22" fill="#555555" />
<circle cx="17" cy="16.454482671904334" r="0.22" fill="#555555" />
<circle cx="18" cy="16.454482671904334" r="0.22" fill="#555555" />
<circle cx="19" cy="16.454482671904334" r="0.22" fill="#555555" />
<circle cx="20" cy="16.454482671904334" r="0.22" fill="#555555" />
<circle cx="21" cy="16.454482671904334" r="0.22" fill="#555555" />
<circle cx="29" cy="16.454482671904334" r="0.22" fill="#555555" />
<circle cx="30" cy="16.454482671904334" r="0.22" fill="#555555" />
<circle cx="31" cy="16.454482671904334" r="0.22" fill="#555555" />
<circle cx="32" cy="16.454482671904334" r="0.22" fill="#555555" />
<circle cx="15.5" cy="17.32050807568877" r="0.22" fill="#555555" />
<circle cx="16.5" cy="17.32050807568877" r="0.22" fill="#555555" />
<circle cx="17.5" cy="17.32050807568877" r="0.22" fill="#555555" />
<circle cx="18.5" cy="17.32050807568877" r="0.22" fill="#555555" />
<circle cx="19.5" cy="17.32050807568877" r="0.22" fill="#555555" />
<circle cx="20.5" cy="17.32050807568877" r="0.22" fill="#555555" />
<circle cx="28.5" cy="17.32050807568877" r="0.22" fill="#555555" />
<circle cx="29.5" cy="17.32050807568877" r="0.22" fill="#555555" />
<circle cx="30.5" cy="17.32050807568877" r="0.22" fill="#555555" />
<circle cx="31.5" cy="17.32050807568877" r="0.22" fill="#555555" />
<circle cx="33.5" cy="17.32050807568877" r="0.22" fill="#555555" />
<circle cx="45.5" cy="17.32050807568877" r="0.22" fill="#555555" />
<circle cx="46.5" cy="17.32050807568877" r="0.22" fill="#555555" />
<circle cx="47.5" cy="17.32050807568877" r="0.22" fill="#555555" />
<circle cx="17" cy="18.186533479473212" r="0.22" fill="#555555" />
<circle cx="18" cy="18.186533479473212" r="0.22" fill="#555555" />
<circle cx="19" cy="18.186533479473212" r="0.22" fill="#555555" />
<circle cx="20" cy="18.186533479473212" r="0.22" fill="#555555" />
<circle cx="29" cy="18.186533479473212" r="0.22" fill="#555555" />
<circle cx="30" cy="18.186533479473212" r="0.22" fill="#555555" />
<circle cx="31" cy="18.186533479473212" r="0.22" fill="#555555" />
<circle cx="33" cy="18.186533479473212" r="0.22" fill="#555555" />
<circle cx="44" cy="18.186533479473212" r="0.22" fill="#555555" />
<circle cx="45" cy="18.186533479473212" r="0.22" fill="#555555" />
<circle cx="46" cy="18.186533479473212" r="0.22" fill="#555555" />
<circle cx="47" cy="18.186533479473212" r="0.22" fill="#555555" />
<circle cx="48" cy="18.186533479473212" r="0.22" fill="#555555" />
<circle cx="51" cy="18.186533479473212" r="0.22" fill="#555555" />
<circle cx="16.5" cy="19.05255888325765" r="0.22" fill="#555555" />
<circle cx="17.5" cy="19.05255888325765" r="0.22" fill="#555555" />
<circle cx="18.5" cy="19.05255888325765" r="0.22" fill="#555555" />
<circle cx="29.5" cy="19.05255888325765" r="0.22" fill="#555555" />
<circle cx="30.5" cy="19.05255888325765" r="0.22" fill="#555555" />
<circle cx="43.5" cy="19.05255888325765" r="0.22" fill="#555555" />
<circle cx="44.5" cy="19.05255888325765" r="0.22" fill="#555555" />
<circle cx="45.5" cy="19.05255888325765" r="0.22" fill="#555555" />
<circle cx="46.5" cy="19.05255888325765" r="0.22" fill="#555555" />
<circle cx="47.5" cy="19.05255888325765" r="0.22" fill="#555555" />
<circle cx="48.5" cy="19.05255888325765" r="0.22" fill="#555555" />
<circle cx="16" cy="19.918584287042087" r="0.22" fill="#555555" />
<circle cx="17" cy="19.918584287042087" r="0.22" fill="#555555" />
<circle cx="18" cy="19.918584287042087" r="0.22" fill="#555555" />
<circle cx="30" cy="19.918584287042087" r="0.22" fill="#555555" />
<circle cx="44" cy="19.918584287042087" r="0.22" fill="#555555" />
<circle cx="45" cy="19.918584287042087" r="0.22" fill="#555555" />
<circle cx="46" cy="19.918584287042087" r="0.22" fill="#555555" />
<circle cx="47" cy="19.918584287042087" r="0.22" fill="#555555" />
<circle cx="48" cy="19.918584287042087" r="0.22" fill="#555555" />
<circle cx="49" cy="19.918584287042087" r="0.22" fill="#555555" />
<circle cx="16.5" cy="20.784609690826528" r="0.22" fill="#555555" />
<circle cx="17.5" cy="20.784609690826528" r="0.22" fill="#555555" />
<circle cx="47.5" cy="20.784609690826528" r="0.22" fill="#555555" />
<circle cx="48.5" cy="20.784609690826528" r="0.22" fill="#555555" />
<circle cx="16" cy="21.650635094610966" r="0.22" fill="#555555" />
<circle cx="48" cy="21.650635094610966" r="0.22" fill="#555555" />
<circle cx="52" cy="21.650635094610966" r="0.22" fill="#555555" />
<circle cx="15.5" cy="22.516660498395403" r="0.22" fill="#555555" />
<circle cx="16.5" cy="22.516660498395403" r="0.22" fill="#555555" />
<circle cx="51.5" cy="22.516660498395403" r="0.22" fill="#555555" />
<circle cx="16" cy="23.38268590217984" r="0.22" fill="#555555" />
<circle cx="15.5" cy="24.24871130596428" r="0.22" fill="#555555" />
<circle cx="43" cy="11.258330249197702" r="0.4" fill="#ff8c00" />
<circle cx="27.5" cy="6.928203230275509" r="0.4" fill="#ff8c00" />
      </svg>